<svg width="28.000000" height="28.000000" viewBox="0 0 28 28" fill="none" xmlns="http://www.w3.org/2000/svg" xmlns:xlink="http://www.w3.org/1999/xlink">
	<desc>
			Created with Pixso.
	</desc>
	<defs>
		<clipPath id="clip1_154">
			<rect id="add-to-cart 1" width="28.000000" height="28.000000" fill="white" fill-opacity="0"/>
		</clipPath>
	</defs>
	<rect id="add-to-cart 1" width="28.000000" height="28.000000" fill="#FFFFFF" fill-opacity="0"/>
	<g clip-path="url(#clip1_154)">
		<path id="Vector" d="M27.23 5.31C26.71 4.71 25.97 4.39 25.14 4.39L18.92 4.39L18.92 0.82C18.92 0.36 18.55 0 18.1 0L13.71 0C13.25 0 12.89 0.36 12.89 0.82L12.89 4.39L5.21 4.39L5.01 2.88C4.8 1.26 3.67 0 2.44 0L0.98 0C0.53 0 0.16 0.36 0.16 0.82C0.16 1.27 0.53 1.64 0.98 1.64L2.44 1.64C2.71 1.64 3.26 2.19 3.39 3.1L5.73 20.71C5.84 21.49 6.24 22.22 6.86 22.76C7.32 23.16 7.86 23.43 8.43 23.54C8.2 23.97 8.07 24.46 8.07 24.98C8.07 26.64 9.42 28 11.08 28C12.75 28 14.1 26.64 14.1 24.98C14.1 24.48 13.98 24.01 13.77 23.6L18.07 23.6C17.85 24.01 17.73 24.48 17.73 24.98C17.73 26.64 19.09 28 20.75 28C22.41 28 23.77 26.64 23.77 24.98C23.77 24.48 23.64 24.01 23.43 23.6L25.58 23.6C26.03 23.6 26.4 23.23 26.4 22.78C26.4 22.33 26.03 21.96 25.58 21.96L9.03 21.96C8.23 21.96 7.47 21.29 7.36 20.5L7.19 19.21L23.38 19.21C24.17 19.21 24.94 18.91 25.56 18.37C26.18 17.82 26.58 17.1 26.69 16.32L27.86 7.49C27.97 6.68 27.74 5.9 27.23 5.31ZM12.46 24.98C12.46 25.74 11.84 26.35 11.08 26.35C10.33 26.35 9.71 25.74 9.71 24.98C9.71 24.22 10.33 23.6 11.08 23.6C11.84 23.6 12.46 24.22 12.46 24.98ZM22.13 24.98C22.13 25.74 21.51 26.35 20.75 26.35C19.99 26.35 19.37 25.74 19.37 24.98C19.37 24.22 19.99 23.6 20.75 23.6C21.51 23.6 22.13 24.22 22.13 24.98ZM26.24 7.28L25.06 16.1C24.95 16.9 24.19 17.57 23.38 17.57L6.97 17.57L5.43 6.03L12.89 6.03L18.92 6.03L25.14 6.03C25.49 6.03 25.79 6.16 25.99 6.39C26.19 6.62 26.28 6.94 26.24 7.28ZM17.28 1.64L14.53 1.64L14.53 4.39L17.28 4.39L17.28 1.64Z" fill="#515076" fill-opacity="1.000000" fill-rule="evenodd"/>
		<path id="Vector" d="M8.2 19.21L23.38 19.21C24.17 19.21 24.94 18.91 25.56 18.37C26.18 17.82 26.58 17.1 26.69 16.32L27.86 7.49C27.97 6.68 27.74 5.9 27.23 5.31C26.71 4.71 25.97 4.39 25.14 4.39L18.92 4.39L18.92 0.82C18.92 0.36 18.55 0 18.1 0L13.71 0C13.25 0 12.89 0.36 12.89 0.82L12.89 4.39L5.21 4.39L5.01 2.88C4.8 1.26 3.67 0 2.44 0L0.98 0C0.53 0 0.16 0.36 0.16 0.82C0.16 1.27 0.53 1.64 0.98 1.64L2.44 1.64C2.71 1.64 3.26 2.19 3.39 3.1L5.73 20.71C5.84 21.49 6.24 22.22 6.86 22.76C7.05 22.93 7.26 23.08 7.48 23.2C7.78 23.36 8.1 23.48 8.43 23.54C8.27 23.83 8.16 24.16 8.11 24.5C8.08 24.65 8.07 24.81 8.07 24.98C8.07 26.64 9.42 28 11.08 28C12.75 28 14.1 26.64 14.1 24.98C14.1 24.85 14.09 24.73 14.08 24.6C14.03 24.25 13.93 23.91 13.77 23.6L18.07 23.6C17.91 23.91 17.8 24.25 17.76 24.6C17.74 24.73 17.73 24.85 17.73 24.98C17.73 26.64 19.09 28 20.75 28C22.41 28 23.77 26.64 23.77 24.98C23.77 24.85 23.76 24.73 23.74 24.6C23.7 24.25 23.59 23.91 23.43 23.6L25.58 23.6C26.03 23.6 26.4 23.23 26.4 22.78C26.4 22.33 26.03 21.96 25.58 21.96L9.03 21.96C8.23 21.96 7.47 21.29 7.36 20.5L7.32 20.21L7.19 19.21L8.2 19.21ZM17.28 2.64L17.28 1.64L14.53 1.64L14.53 4.39L17.28 4.39L17.28 2.64ZM6.44 6.03L25.14 6.03C25.49 6.03 25.79 6.16 25.99 6.39C26.19 6.62 26.28 6.94 26.24 7.28L25.06 16.1C24.95 16.9 24.19 17.57 23.38 17.57L6.97 17.57L5.56 7.03L5.43 6.03L6.44 6.03ZM12.46 24.98C12.46 25.74 11.84 26.35 11.08 26.35C10.33 26.35 9.71 25.74 9.71 24.98C9.71 24.22 10.33 23.6 11.08 23.6C11.84 23.6 12.46 24.22 12.46 24.98ZM22.13 24.98C22.13 25.74 21.51 26.35 20.75 26.35C19.99 26.35 19.37 25.74 19.37 24.98C19.37 24.22 19.99 23.6 20.75 23.6C21.51 23.6 22.13 24.22 22.13 24.98Z" fill="#515076" fill-opacity="1.000000" fill-rule="evenodd"/>
		<path id="Vector 7" d="" fill="#515076" fill-opacity="1.000000" fill-rule="nonzero"/>
		<path id="Vector 7" d="M10.9 5.14L11.19 " stroke="#515076" stroke-opacity="1.000000" stroke-width="1.500000"/>
		<path id="Vector 8" d="" fill="#515076" fill-opacity="1.000000" fill-rule="nonzero"/>
		<path id="Vector 8" d="M14.87 4.66L15.16 " stroke="#515076" stroke-opacity="1.000000" stroke-width="1.500000"/>
		<path id="Vector 9" d="" fill="#515076" fill-opacity="1.000000" fill-rule="nonzero"/>
		<path id="Vector 9" d="M18.83 5.18L19.12 " stroke="#515076" stroke-opacity="1.000000" stroke-width="1.500000"/>
		<path id="Vector 10" d="" fill="#515076" fill-opacity="1.000000" fill-rule="nonzero"/>
		<path id="Vector 10" d="M22.8 5.7L23.09 " stroke="#515076" stroke-opacity="1.000000" stroke-width="1.500000"/>
	</g>
</svg>
