<svg width="27.000000" height="28.000000" viewBox="0 0 27 28" fill="none" xmlns="http://www.w3.org/2000/svg" xmlns:xlink="http://www.w3.org/1999/xlink">
	<desc>
			Created with Pixso.
	</desc>
	<defs/>
	<path id="Vector" d="M26.23 5.31C25.71 4.71 24.97 4.39 24.14 4.39L17.92 4.39L17.92 0.82C17.92 0.36 17.55 0 17.1 0L12.71 0C12.25 0 11.89 0.36 11.89 0.82L11.89 4.39L4.21 4.39L4.01 2.88C3.8 1.26 2.67 0 1.44 0L-0.02 0C-0.47 0 -0.84 0.36 -0.84 0.82C-0.84 1.27 -0.47 1.64 -0.02 1.64L1.44 1.64C1.71 1.64 2.26 2.19 2.39 3.1L4.73 20.71C4.84 21.49 5.24 22.22 5.86 22.76C6.32 23.16 6.86 23.43 7.43 23.54C7.2 23.97 7.07 24.46 7.07 24.98C7.07 26.64 8.42 28 10.08 28C11.75 28 13.1 26.64 13.1 24.98C13.1 24.48 12.98 24.01 12.77 23.6L17.07 23.6C16.85 24.01 16.73 24.48 16.73 24.98C16.73 26.64 18.09 28 19.75 28C21.41 28 22.77 26.64 22.77 24.98C22.77 24.48 22.64 24.01 22.43 23.6L24.58 23.6C25.03 23.6 25.4 23.23 25.4 22.78C25.4 22.33 25.03 21.96 24.58 21.96L8.03 21.96C7.23 21.96 6.47 21.29 6.36 20.5L6.19 19.21L22.38 19.21C23.17 19.21 23.94 18.91 24.56 18.37C25.18 17.82 25.58 17.1 25.69 16.32L26.86 7.49C26.97 6.68 26.74 5.9 26.23 5.31ZM11.46 24.98C11.46 25.74 10.84 26.35 10.08 26.35C9.32 26.35 8.71 25.74 8.71 24.98C8.71 24.22 9.32 23.6 10.08 23.6C10.84 23.6 11.46 24.22 11.46 24.98ZM21.13 24.98C21.13 25.74 20.51 26.35 19.75 26.35C18.99 26.35 18.37 25.74 18.37 24.98C18.37 24.22 18.99 23.6 19.75 23.6C20.51 23.6 21.13 24.22 21.13 24.98ZM25.24 7.28L24.06 16.1C23.95 16.9 23.19 17.57 22.38 17.57L5.97 17.57L4.43 6.03L11.89 6.03L17.92 6.03L24.14 6.03C24.49 6.03 24.79 6.16 24.99 6.39C25.19 6.62 25.28 6.94 25.24 7.28ZM16.28 1.64L13.53 1.64L13.53 4.39L16.28 4.39L16.28 1.64Z" fill="#515076" fill-opacity="1.000000" fill-rule="evenodd"/>
	<path id="Vector" d="M7.2 19.21L22.38 19.21C23.17 19.21 23.94 18.91 24.56 18.37C25.18 17.82 25.58 17.1 25.69 16.32L26.86 7.49C26.97 6.68 26.74 5.9 26.23 5.31C25.71 4.71 24.97 4.39 24.14 4.39L17.92 4.39L17.92 0.82C17.92 0.36 17.55 0 17.1 0L12.71 0C12.25 0 11.89 0.36 11.89 0.82L11.89 4.39L4.21 4.39L4.01 2.88C3.8 1.26 2.67 0 1.44 0L-0.02 0C-0.47 0 -0.84 0.36 -0.84 0.82C-0.84 1.27 -0.47 1.64 -0.02 1.64L1.44 1.64C1.71 1.64 2.26 2.19 2.39 3.1L4.73 20.71C4.84 21.49 5.24 22.22 5.86 22.76C6.05 22.93 6.26 23.08 6.48 23.2C6.78 23.36 7.1 23.48 7.43 23.54C7.27 23.83 7.16 24.16 7.11 24.5C7.08 24.65 7.07 24.81 7.07 24.98C7.07 26.64 8.42 28 10.08 28C11.75 28 13.1 26.64 13.1 24.98C13.1 24.85 13.09 24.73 13.08 24.6C13.03 24.25 12.93 23.91 12.77 23.6L17.07 23.6C16.91 23.91 16.8 24.25 16.76 24.6C16.74 24.73 16.73 24.85 16.73 24.98C16.73 26.64 18.09 28 19.75 28C21.41 28 22.77 26.64 22.77 24.98C22.77 24.85 22.76 24.73 22.74 24.6C22.7 24.25 22.59 23.91 22.43 23.6L24.58 23.6C25.03 23.6 25.4 23.23 25.4 22.78C25.4 22.33 25.03 21.96 24.58 21.96L8.03 21.96C7.23 21.96 6.47 21.29 6.36 20.5L6.32 20.21L6.19 19.21L7.2 19.21ZM16.28 2.64L16.28 1.64L13.53 1.64L13.53 4.39L16.28 4.39L16.28 2.64ZM5.44 6.03L24.14 6.03C24.49 6.03 24.79 6.16 24.99 6.39C25.19 6.62 25.28 6.94 25.24 7.28L24.06 16.1C23.95 16.9 23.19 17.57 22.38 17.57L5.97 17.57L4.56 7.03L4.43 6.03L5.44 6.03ZM11.46 24.98C11.46 25.74 10.84 26.35 10.08 26.35C9.32 26.35 8.71 25.74 8.71 24.98C8.71 24.22 9.32 23.6 10.08 23.6C10.84 23.6 11.46 24.22 11.46 24.98ZM21.13 24.98C21.13 25.74 20.51 26.35 19.75 26.35C18.99 26.35 18.37 25.74 18.37 24.98C18.37 24.22 18.99 23.6 19.75 23.6C20.51 23.6 21.13 24.22 21.13 24.98Z" fill="#515076" fill-opacity="1.000000" fill-rule="evenodd"/>
</svg>
