<svg width="34.000000" height="38.000000" viewBox="0 0 34 38" fill="none" xmlns="http://www.w3.org/2000/svg" xmlns:xlink="http://www.w3.org/1999/xlink">
	<desc>
			Created with Pixso.
	</desc>
	<defs/>
	<path d="M-0.95 -0.59L-0.95 -0.76L13.99 -0.76C19.9 -0.76 24.57 1 28 4.5C31.47 7.97 33.2 12.6 33.2 18.4C33.2 24.04 31.38 28.73 27.72 32.46C24.07 36.15 19.49 38 13.99 38L-0.95 38L-0.95 37.83L2.53 37.83L2.53 -0.59L-0.95 -0.59ZM13.5 -0.59L8.29 -0.59L8.29 37.83L13.55 37.83C17.83 37.83 21.12 36.08 23.4 32.57C25.69 29.06 26.84 24.45 26.84 18.73C26.84 13.27 25.64 8.67 23.24 4.95C20.88 1.26 17.63 -0.59 13.5 -0.59Z" fill="#6E6D87" fill-opacity="1.000000" fill-rule="nonzero"/>
</svg>
