<svg width="67.000000" height="67.000000" viewBox="0 0 67 67" fill="none" xmlns="http://www.w3.org/2000/svg" xmlns:xlink="http://www.w3.org/1999/xlink">
	<desc>
			Created with Pixso.
	</desc>
	<defs/>
	<path id="Ellipse 7" d="M33.5 0C14.99 0 0 14.99 0 33.5C0 52 14.99 67 33.5 67C42.75 67 51.12 63.25 57.18 57.18C63.25 51.12 67 42.75 67 33.5C67 14.99 52 0 33.5 0ZM28.64 0.65Q31.04 0.3 33.5 0.3Q35.94 0.3 38.34 0.65Q39.27 0.78 40.19 0.97Q41.8 1.3 43.37 1.79Q44.92 2.27 46.42 2.9Q47.67 3.44 48.88 4.07Q50.52 4.92 52.06 5.96Q53.28 6.79 54.41 7.71Q55.75 8.8 56.97 10.02Q58.2 11.24 59.28 12.58Q60.2 13.72 61.03 14.93Q62.06 16.47 62.92 18.1Q63.55 19.31 64.09 20.57Q64.72 22.07 65.2 23.61Q65.69 25.18 66.02 26.8Q66.21 27.72 66.34 28.64Q66.69 31.04 66.69 33.5Q66.69 35.94 66.34 38.34Q66.21 39.27 66.02 40.19Q65.69 41.81 65.2 43.38Q64.72 44.92 64.09 46.42Q63.55 47.68 62.92 48.89Q62.06 50.52 61.03 52.06Q60.2 53.27 59.28 54.41Q58.2 55.74 56.97 56.97Q55.75 58.19 54.41 59.28Q53.28 60.2 52.06 61.03Q50.52 62.06 48.89 62.92Q47.68 63.55 46.42 64.09Q44.92 64.72 43.38 65.2Q41.81 65.69 40.19 66.02Q39.27 66.21 38.34 66.34Q35.94 66.69 33.5 66.69Q31.05 66.69 28.65 66.34Q27.72 66.21 26.8 66.02Q25.18 65.69 23.61 65.2Q22.07 64.72 20.57 64.09Q19.31 63.55 18.1 62.92Q16.47 62.06 14.93 61.03Q13.71 60.2 12.58 59.28Q11.24 58.19 10.02 56.97Q8.79 55.75 7.71 54.41Q6.79 53.27 5.96 52.06Q4.92 50.52 4.07 48.88Q3.44 47.68 2.9 46.42Q2.27 44.92 1.79 43.37Q1.3 41.8 0.97 40.19Q0.78 39.27 0.65 38.34Q0.29 35.94 0.29 33.5Q0.29 31.04 0.65 28.64Q0.78 27.72 0.97 26.8Q1.3 25.18 1.79 23.61Q2.27 22.07 2.9 20.57Q3.44 19.31 4.07 18.1Q4.93 16.47 5.96 14.93Q6.79 13.71 7.71 12.58Q8.8 11.24 10.02 10.02Q11.24 8.8 12.58 7.71Q13.71 6.79 14.93 5.96Q16.47 4.93 18.1 4.07Q19.31 3.44 20.57 2.9Q22.07 2.27 23.61 1.79Q25.18 1.3 26.8 0.97Q27.72 0.78 28.64 0.65Z" fill="#6E6D87" fill-opacity="1.000000" fill-rule="evenodd"/>
</svg>
