<svg width="22.000000" height="19.000000" viewBox="0 0 22 19" fill="none" xmlns="http://www.w3.org/2000/svg" xmlns:xlink="http://www.w3.org/1999/xlink">
	<desc>
			Created with Pixso.
	</desc>
	<defs/>
	<path id="Vector" d="M20.54 -0.76L0.61 -0.76C-0.07 -0.76 -0.63 -0.28 -0.63 0.3L-0.63 17.42C-0.63 18.01 -0.07 18.48 0.61 18.48L11.34 18.48L11.34 11.03L8.42 11.03L8.42 8.13L11.34 8.13L11.34 5.98C11.34 3.5 13.11 2.15 15.69 2.15C16.93 2.15 17.99 2.23 18.3 2.26L18.3 4.86L16.51 4.86C15.1 4.86 14.83 5.43 14.83 6.27L14.83 8.13L18.18 8.13L17.74 11.03L14.83 11.03L14.83 18.48L20.54 18.48C21.23 18.48 21.78 18 21.78 17.42L21.78 0.3C21.78 -0.28 21.23 -0.76 20.54 -0.76Z" fill="#5B5A7E" fill-opacity="1.000000" fill-rule="nonzero"/>
</svg>
