<svg width="22.000000" height="20.000000" viewBox="0 0 22 20" fill="none" xmlns="http://www.w3.org/2000/svg" xmlns:xlink="http://www.w3.org/1999/xlink">
	<desc>
			Created with Pixso.
	</desc>
	<defs/>
	<path id="Vector" d="M20.82 -0.01L0.44 -0.01C-0.12 -0.01 -0.57 0.38 -0.57 0.87L-0.57 18.66C-0.57 19.14 -0.12 19.54 0.44 19.54L20.82 19.54C21.38 19.54 21.83 19.14 21.83 18.66L21.83 0.87C21.83 0.38 21.38 -0.01 20.82 -0.01L20.82 -0.01ZM10.63 6.35C12.79 6.35 14.54 7.88 14.54 9.76C14.54 11.65 12.79 13.17 10.63 13.17C8.47 13.17 6.72 11.65 6.72 9.76C6.72 7.88 8.47 6.35 10.63 6.35ZM19.03 17.09L2.23 17.09L2.23 8.54L4.07 8.54C3.97 8.94 3.92 9.34 3.92 9.76C3.92 12.99 6.93 15.62 10.63 15.62C14.33 15.62 17.34 12.99 17.34 9.76C17.34 9.34 17.28 8.94 17.19 8.54L19.03 8.54L19.03 17.09L19.03 17.09ZM19.03 6.1L14.83 6.1L14.83 2.43L19.03 2.43L19.03 6.1Z" fill="#5B5A7E" fill-opacity="1.000000" fill-rule="nonzero"/>
</svg>
